<svg width="520" height="520" xmlns="http://www.w3.org/2000/svg" xmlns:xlink="http://www.w3.org/1999/xlink" xml:space="preserve" overflow="hidden"><defs><clipPath id="clip0"><rect x="380" y="100" width="520" height="520"/></clipPath></defs><g clip-path="url(#clip0)" transform="translate(-380 -100)"><path d="M740 420 700 420 700 380 660.1 380 660.1 500.1 700 500.1 700 540 740 540Z" fill="#E5E5E5"/><path d="M740 540 780 540 780 580 740 580Z" fill="#E5E5E5"/><path d="M819.9 540 859.9 540 859.9 580 819.9 580Z" fill="#E5E5E5"/><path d="M860 380 819.9 380 819.9 420 779.9 420 779.9 540 819.9 540 819.9 500.1 860 500.1Z" fill="#E5E5E5"/><path d="M660.1 540 700.1 540 700.1 580 660.1 580Z" fill="#E5E5E5"/><path d="M500.1 219.9 540.1 219.9 540.1 259.9 500.1 259.9Z" fill="#E5E5E5"/><path d="M420 140 420 340 619.9 340 619.9 140 420 140ZM580 299.9 460.1 299.9 460.1 180 580.1 180 580.1 299.9 580 299.9Z" fill="#E5E5E5"/><path d="M740 219.9 780 219.9 780 259.9 740 259.9Z" fill="#E5E5E5"/><path d="M660.1 140 660.1 340 860 340 860 140 660.1 140ZM819.9 299.9 700 299.9 700 180 820 180 820 299.9 819.9 299.9Z" fill="#E5E5E5"/><path d="M500.1 459.9 540.1 459.9 540.1 499.9 500.1 499.9Z" fill="#E5E5E5"/><path d="M420 380 420 580 619.9 580 619.9 380 420 380ZM580 540 460.1 540 460.1 420 580.1 420 580.1 540 580 540Z" fill="#E5E5E5"/></g></svg>